<?xml version="1.0" encoding="UTF-8" standalone="no"?>
<!DOCTYPE svg PUBLIC "-//W3C//DTD SVG 1.1//EN"
 "http://www.w3.org/Graphics/SVG/1.1/DTD/svg11.dtd">
<!-- Generated by graphviz version 2.43.0 (0)
 -->
<!-- Title: workflow Pages: 1 -->
<svg width="228pt" height="544pt"
 viewBox="0.00 0.00 228.00 544.00" xmlns="http://www.w3.org/2000/svg" xmlns:xlink="http://www.w3.org/1999/xlink">
<g id="graph0" class="graph" transform="scale(1 1) rotate(0) translate(4 540)">
<title>workflow</title>
<polygon fill="white" stroke="transparent" points="-4,4 -4,-540 224,-540 224,4 -4,4"/>
<text text-anchor="start" x="10" y="-8.8" font-family="Times,serif" font-weight="bold" font-size="14.00">FreeDictCatalogWorkflow</text>
<!-- place_new -->
<g id="node1" class="node">
<title>place_new</title>
<ellipse fill="lightgreen" stroke="lightBlue" cx="148" cy="-491" rx="72" ry="36"/>
<text text-anchor="start" x="140" y="-490.1" font-family="Arial" font-weight="bold" font-size="8.00">new</text>
<text text-anchor="middle" x="55" y="-529.6" font-family="Arial" font-size="8.00">Place new: </text>
</g>
<!-- transition_download -->
<g id="node4" class="node">
<title>transition_download</title>
<polygon fill="lightBlue" stroke="lightBlue" points="220,-419 76,-419 76,-347 220,-347 220,-419"/>
<text text-anchor="start" x="128" y="-385.6" font-family="Arial" font-weight="bold" font-size="8.00">download</text>
<text text-anchor="start" x="135.5" y="-377.6" font-family="Arial" font-size="8.00">async: </text>
<text text-anchor="middle" x="38" y="-421.6" font-family="Arial" font-size="8.00">Transition download: </text>
</g>
<!-- place_new&#45;&gt;transition_download -->
<!-- new -->
<g id="edge1" class="edge">
<title>place_new&#45;&gt;transition_download</title>
<path fill="none" stroke="#333333" d="M148,-455C148,-445.24 148,-434.56 148,-424.51"/>
<polygon fill="#333333" stroke="#333333" points="149.75,-424.33 148,-419.33 146.25,-424.33 149.75,-424.33"/>
</g>
<!-- place_downloaded -->
<g id="node2" class="node">
<title>place_downloaded</title>
<ellipse fill="lightgreen" stroke="lightBlue" cx="148" cy="-275" rx="72" ry="36"/>
<text text-anchor="start" x="123.5" y="-274.1" font-family="Arial" font-weight="bold" font-size="8.00">downloaded</text>
<text text-anchor="middle" x="41" y="-313.6" font-family="Arial" font-size="8.00">Place downloaded: </text>
</g>
<!-- transition_process -->
<g id="node5" class="node">
<title>transition_process</title>
<polygon fill="lightBlue" stroke="lightBlue" points="220,-203 76,-203 76,-131 220,-131 220,-203"/>
<text text-anchor="start" x="132" y="-169.6" font-family="Arial" font-weight="bold" font-size="8.00">process</text>
<text text-anchor="start" x="135.5" y="-161.6" font-family="Arial" font-size="8.00">async: </text>
<text text-anchor="middle" x="41" y="-205.6" font-family="Arial" font-size="8.00">Transition process: </text>
</g>
<!-- place_downloaded&#45;&gt;transition_process -->
<!-- downloaded -->
<g id="edge3" class="edge">
<title>place_downloaded&#45;&gt;transition_process</title>
<path fill="none" stroke="#333333" d="M148,-239C148,-229.24 148,-218.56 148,-208.51"/>
<polygon fill="#333333" stroke="#333333" points="149.75,-208.33 148,-203.33 146.25,-208.33 149.75,-208.33"/>
</g>
<!-- place_processed -->
<g id="node3" class="node">
<title>place_processed</title>
<ellipse fill="lightgreen" stroke="lightBlue" cx="148" cy="-59" rx="72" ry="36"/>
<text text-anchor="start" x="127" y="-58.1" font-family="Arial" font-weight="bold" font-size="8.00">processed</text>
<text text-anchor="middle" x="44" y="-97.6" font-family="Arial" font-size="8.00">Place processed: </text>
</g>
<!-- transition_download&#45;&gt;place_downloaded -->
<g id="edge2" class="edge">
<title>transition_download&#45;&gt;place_downloaded</title>
<path fill="none" stroke="#333333" d="M148,-347C148,-337.24 148,-326.56 148,-316.51"/>
<polygon fill="#333333" stroke="#333333" points="149.75,-316.33 148,-311.33 146.25,-316.33 149.75,-316.33"/>
</g>
<!-- transition_process&#45;&gt;place_processed -->
<g id="edge4" class="edge">
<title>transition_process&#45;&gt;place_processed</title>
<path fill="none" stroke="#333333" d="M148,-131C148,-121.24 148,-110.56 148,-100.51"/>
<polygon fill="#333333" stroke="#333333" points="149.75,-100.33 148,-95.33 146.25,-100.33 149.75,-100.33"/>
</g>
</g>
</svg>
